<svg width="65" height="65" viewBox="0 0 65 65" fill="none" xmlns="http://www.w3.org/2000/svg">
<circle cx="32.5" cy="32.5" r="32.5" fill="#FF6167"/>
<path fill-rule="evenodd" clip-rule="evenodd" d="M32.7238 36.8885C31.2989 36.8885 30.1072 35.775 30.0108 34.3535L29.239 22.5059C29.1728 21.5308 29.5041 20.5999 30.1718 19.8854C30.8395 19.1709 31.7458 18.7773 32.7238 18.7773C33.7016 18.7773 34.6079 19.1709 35.2756 19.8854C35.9433 20.5999 36.2746 21.5308 36.2085 22.5065L35.4367 34.3528C35.3402 35.775 34.1485 36.8885 32.7238 36.8885ZM32.7238 45.8652C31.6401 45.8652 30.7208 45.5088 29.9916 44.806C29.2598 44.1015 28.8887 43.2308 28.8887 42.2183C28.8887 41.2057 29.2541 40.3473 29.9745 39.6672C30.6913 38.99 31.6163 38.6467 32.7238 38.6467C33.8312 38.6467 34.7562 38.99 35.473 39.6672C36.1934 40.3475 36.5587 41.2057 36.5587 42.2183C36.5587 43.2303 36.1875 44.1008 35.4558 44.8058C34.7259 45.5088 33.8067 45.8652 32.7238 45.8652Z" fill="white"/>
</svg>
