<svg width="45" height="45" viewBox="0 0 45 45" fill="none" xmlns="http://www.w3.org/2000/svg">
<circle cx="22.5" cy="22.5" r="22.5" fill="#FF6167"/>
<path fill-rule="evenodd" clip-rule="evenodd" d="M20.0499 22.9999L15.0433 17.6989C14.3973 17.0149 14.3973 15.9058 15.0433 15.2218C15.6894 14.5377 16.7368 14.5377 17.3828 15.2218L22.3894 20.5228L27.3959 15.2218C28.042 14.5377 29.0894 14.5377 29.7354 15.2218C30.3815 15.9058 30.3815 17.0149 29.7354 17.6989L24.7289 22.9999L29.7354 28.301C30.3815 28.985 30.3815 30.0941 29.7354 30.7781C29.0894 31.4622 28.042 31.4622 27.3959 30.7781L22.3894 25.4771L17.3828 30.7781C16.7368 31.4622 15.6894 31.4622 15.0433 30.7781C14.3973 30.0941 14.3973 28.985 15.0433 28.301L20.0499 22.9999Z" fill="#F8F8FA"/>
</svg>
